<!-- login -->
<svg width="0" height="0" class="hidden">
  <symbol fill="none" xmlns="http://www.w3.org/2000/svg" viewBox="0 0 19 20" id="login">
    <path d="M13.185 12.69a4.184 4.184 0 011.95-.48h.003c.072 0 .106-.083.053-.13a8.938 8.938 0 00-2.486-1.543l-.028-.011c1.488-1.057 2.456-2.775 2.456-4.713C15.133 2.602 12.478 0 9.201 0c-3.276 0-5.93 2.602-5.93 5.813 0 1.938.969 3.656 2.46 4.713-.01.005-.02.007-.03.011a8.944 8.944 0 00-2.858 1.89 8.743 8.743 0 00-1.927 2.8 8.592 8.592 0 00-.705 3.237.184.184 0 00.054.136.192.192 0 00.138.056h1.435a.19.19 0 00.192-.183 6.919 6.919 0 012.1-4.788 7.197 7.197 0 015.074-2.06c1.359 0 2.662.368 3.787 1.057a.196.196 0 00.194.007zM9.204 9.843a4.14 4.14 0 01-2.91-1.181A4.008 4.008 0 015.4 7.354a3.968 3.968 0 01.894-4.393 4.128 4.128 0 012.91-1.18c1.1 0 2.13.419 2.91 1.18.383.374.686.819.893 1.308a3.968 3.968 0 01-.894 4.393 4.136 4.136 0 01-2.91 1.18zm8.815 5.578h-2.013v-1.969a.19.19 0 00-.192-.187h-1.342a.19.19 0 00-.192.187v1.969h-2.013a.19.19 0 00-.192.187v1.313a.19.19 0 00.192.187h2.013v1.97a.19.19 0 00.192.187h1.342a.19.19 0 00.192-.188V17.11h2.013a.19.19 0 00.192-.187V15.61a.19.19 0 00-.192-.187z" fill="#fff"></path>
  </symbol>
    <!-- search -->
  <symbol fill="none" xmlns="http://www.w3.org/2000/svg" viewBox="0 0 20 20" id="search">
    <path d="M19 19l-6-6 6 6zM15 8a7.002 7.002 0 01-9.679 6.467A7 7 0 1115 8z" stroke="#fff" stroke-width="2" stroke-linecap="round" stroke-linejoin="round"></path>
  </symbol>
<!-- nots -->
  <symbol fill="none" xmlns="http://www.w3.org/2000/svg" viewBox="0 0 22 24" id="notification">
    <path d="M9.967 23.518a1.72 1.72 0 001.137-.473c.315-.294.521-.698.583-1.138H8.18c.063.452.279.865.607 1.162a1.72 1.72 0 001.18.449z" fill="#fff"></path>
    <path d="M9.967 23.518a1.72 1.72 0 001.137-.473c.315-.294.521-.698.583-1.138H8.18c.063.452.279.865.607 1.162a1.72 1.72 0 001.18.449z" stroke="#fff"></path>
    <path d="M19.772 18.415a9.821 9.821 0 01-1.685-2.01 8.808 8.808 0 01-.906-3.298V9.72a7.637 7.637 0 00-.107-1.228 4.928 4.928 0 01-1.504-.576c.179.586.27 1.197.269 1.81v3.388a9.928 9.928 0 001.107 4.012c.464.75 1.013 1.44 1.638 2.057H1.396a11.048 11.048 0 001.638-2.057 9.927 9.927 0 001.107-4.012V9.72a6.15 6.15 0 01.44-2.315A6.047 6.047 0 015.857 5.44 5.9 5.9 0 017.77 4.123a5.797 5.797 0 012.263-.466 5.691 5.691 0 013.194.988 5.24 5.24 0 01-.174-1.2v-.432a6.99 6.99 0 00-2.229-.686v-.864a.926.926 0 00-.262-.647.886.886 0 00-1.267 0 .926.926 0 00-.262.647v.898a7.213 7.213 0 00-4.47 2.486 7.509 7.509 0 00-1.77 4.873v3.387a8.806 8.806 0 01-.906 3.299 9.826 9.826 0 01-1.658 2.009.685.685 0 00-.228.514v.933c0 .182.07.356.197.485.125.128.296.2.474.2H19.33a.664.664 0 00.474-.2.693.693 0 00.197-.485v-.933a.697.697 0 00-.228-.514z" fill="#fff"></path>
  </symbol>
</svg>

